<svg width="20" height="20" viewBox="0 0 20 20" fill="none" xmlns="http://www.w3.org/2000/svg">
<path d="M6.13873 7.2666H3.0979V16.3983H6.13873V7.2666Z" fill="white"/>
<path d="M6.33321 4.44697C6.33503 4.22922 6.29148 4.01348 6.20532 3.81349C6.11916 3.61351 5.99229 3.43366 5.83279 3.28541C5.67329 3.13716 5.48466 3.02376 5.27892 2.95244C5.07317 2.88111 4.85483 2.85342 4.63779 2.87114C4.41977 2.85306 4.20036 2.88036 3.99341 2.95132C3.78646 3.02228 3.59646 3.13536 3.4354 3.28343C3.27433 3.43149 3.14571 3.61132 3.05762 3.81159C2.96954 4.01185 2.92392 4.22819 2.92363 4.44697C2.92201 4.66304 2.96508 4.87711 3.05013 5.07574C3.13518 5.27437 3.26038 5.45327 3.41786 5.6012C3.57535 5.74914 3.76172 5.86292 3.96527 5.93541C4.16883 6.00789 4.38517 6.0375 4.60071 6.02239H4.61946C4.83773 6.04189 5.05767 6.01558 5.26518 5.94517C5.4727 5.87475 5.66322 5.76177 5.82455 5.61347C5.98588 5.46516 6.11445 5.2848 6.20204 5.08393C6.28964 4.88306 6.33431 4.66611 6.33321 4.44697Z" fill="white"/>
<path d="M17.077 11.1664C17.077 8.36519 15.5841 7.05644 13.5845 7.05644C13.0277 7.0327 12.4753 7.16403 11.9888 7.43579C11.5023 7.70756 11.1008 8.10908 10.8291 8.59561H10.8478V7.26644H7.81616C7.81616 7.26644 7.85283 8.12353 7.81616 16.3981H10.8478V11.3027C10.8401 11.0499 10.8743 10.7976 10.9491 10.556C11.0634 10.234 11.2742 9.95496 11.5529 9.75707C11.8315 9.55918 12.1644 9.45202 12.5062 9.45019C13.6028 9.45019 14.0453 10.2889 14.0453 11.5144V16.3981H17.077V11.1664Z" fill="white"/>
</svg>
