<svg width="182" height="72" viewBox="0 0 182 72" fill="none" xmlns="http://www.w3.org/2000/svg">
<path d="M100.991 23.6924V28.1727H93.3603V48.9953H87.9962V28.1727H80.3308V23.6924H100.991Z" fill="white"/>
<path d="M109.453 28.0869V34.8847H115.491C116.691 34.8847 117.591 34.7474 118.191 34.4727C119.252 33.9921 119.783 33.0422 119.783 31.6231C119.783 30.0896 119.269 29.0597 118.243 28.5332C117.666 28.2357 116.801 28.0869 115.647 28.0869H109.453ZM116.755 23.6924C118.543 23.7267 119.915 23.9442 120.873 24.3447C121.842 24.7452 122.661 25.3346 123.33 26.1128C123.884 26.7537 124.322 27.4632 124.645 28.2414C124.968 29.0196 125.129 29.9065 125.129 30.9022C125.129 32.1038 124.824 33.2883 124.212 34.4556C123.601 35.6114 122.592 36.4297 121.184 36.9103C122.361 37.3795 123.192 38.049 123.676 38.9187C124.172 39.7771 124.42 41.0931 124.42 42.867V44.5664C124.42 45.7223 124.466 46.5062 124.558 46.9182C124.697 47.5705 125.02 48.0511 125.527 48.3601V48.9953H119.662C119.5 48.4345 119.385 47.9825 119.316 47.6391C119.177 46.9296 119.102 46.2029 119.091 45.459L119.056 43.1073C119.033 41.4937 118.733 40.4179 118.156 39.8801C117.591 39.3422 116.524 39.0732 114.955 39.0732H109.453V48.9953H104.244V23.6924H116.755Z" fill="white"/>
<path d="M148.593 28.1727H135.096V33.5457H147.486V37.9403H135.096V44.4462H149.216V48.9953H129.888V23.6924H148.593V28.1727Z" fill="white"/>
<path d="M172.23 28.1727H158.733V33.5457H171.122V37.9403H158.733V44.4462H172.852V48.9953H153.524V23.6924H172.23V28.1727Z" fill="white"/>
<path d="M176.521 43.8798H181.764V48.9953H176.521V43.8798Z" fill="white"/>
<path opacity="0.5" d="M36.4717 51.8174C45.0941 51.8174 52.0838 44.8918 52.0838 36.3486C52.0838 27.8055 45.0941 20.8799 36.4717 20.8799C27.8494 20.8799 20.8596 27.8055 20.8596 36.3486C20.8596 44.8918 27.8494 51.8174 36.4717 51.8174Z" fill="white"/>
<path opacity="0.25" d="M57.0513 51.8174C65.6737 51.8174 72.6634 44.8918 72.6634 36.3486C72.6634 27.8055 65.6737 20.8799 57.0513 20.8799C48.429 20.8799 41.4392 27.8055 41.4392 36.3486C41.4392 44.8918 48.429 51.8174 57.0513 51.8174Z" fill="white"/>
<path opacity="0.75" d="M15.8921 51.8174C24.5145 51.8174 31.5043 44.8918 31.5043 36.3486C31.5043 27.8055 24.5145 20.8799 15.8921 20.8799C7.26981 20.8799 0.280029 27.8055 0.280029 36.3486C0.280029 44.8918 7.26981 51.8174 15.8921 51.8174Z" fill="white"/>
</svg>
