<svg width="121" height="48" viewBox="0 0 121 48" fill="none" xmlns="http://www.w3.org/2000/svg">
<path d="M66.608 15.795V18.7819H61.5611V32.6636H58.0135V18.7819H52.9437V15.795H66.608Z" fill="#1A2F02"/>
<path d="M72.2041 18.7247V23.2565H76.1981C76.9916 23.2565 77.5867 23.165 77.9834 22.9819C78.6853 22.6615 79.0363 22.0282 79.0363 21.0822C79.0363 20.0598 78.6967 19.3732 78.0177 19.0222C77.6363 18.8239 77.0641 18.7247 76.3011 18.7247H72.2041ZM77.0335 15.795C78.2161 15.8179 79.124 15.9628 79.7572 16.2299C80.3981 16.4969 80.9398 16.8898 81.3823 17.4086C81.7485 17.8359 82.0384 18.3089 82.252 18.8277C82.4657 19.3465 82.5725 19.9378 82.5725 20.6015C82.5725 21.4026 82.3703 22.1922 81.9659 22.9704C81.5616 23.741 80.894 24.2865 79.9632 24.607C80.7414 24.9198 81.2907 25.3661 81.6112 25.9459C81.9392 26.5181 82.1033 27.3955 82.1033 28.5781V29.711C82.1033 30.4816 82.1338 31.0042 82.1948 31.2789C82.2864 31.7137 82.5 32.0342 82.8357 32.2402V32.6636H78.9561C78.8493 32.2898 78.773 31.9884 78.7273 31.7595C78.6357 31.2865 78.5861 30.802 78.5785 30.3061L78.5556 28.7383C78.5403 27.6625 78.342 26.9454 77.9605 26.5868C77.5867 26.2282 76.881 26.0489 75.8434 26.0489H72.2041V32.6636H68.7595V15.795H77.0335Z" fill="#1A2F02"/>
<path d="M98.0907 18.7819H89.1643V22.3639H97.3582V25.2936H89.1643V29.6309H98.5027V32.6636H85.7196V15.795H98.0907V18.7819Z" fill="#1A2F02"/>
<path d="M113.723 18.7819H104.797V22.3639H112.991V25.2936H104.797V29.6309H114.135V32.6636H101.352V15.795H113.723V18.7819Z" fill="#1A2F02"/>
<path d="M116.561 29.2533H120.029V32.6636H116.561V29.2533Z" fill="#1A2F02"/>
<g style="mix-blend-mode:multiply">
<path d="M23.9363 34.545C29.6389 34.545 34.2618 29.9279 34.2618 24.2325C34.2618 18.5371 29.6389 13.92 23.9363 13.92C18.2337 13.92 13.6108 18.5371 13.6108 24.2325C13.6108 29.9279 18.2337 34.545 23.9363 34.545Z" fill="#7ED321"/>
</g>
<g style="mix-blend-mode:multiply">
<path d="M37.5471 34.545C43.2498 34.545 47.8726 29.9279 47.8726 24.2325C47.8726 18.5371 43.2498 13.92 37.5471 13.92C31.8445 13.92 27.2217 18.5371 27.2217 24.2325C27.2217 29.9279 31.8445 34.545 37.5471 34.545Z" fill="#B8E986"/>
</g>
<g style="mix-blend-mode:multiply">
<path d="M10.3255 34.545C16.0281 34.545 20.6509 29.9279 20.6509 24.2325C20.6509 18.5371 16.0281 13.92 10.3255 13.92C4.62287 13.92 0 18.5371 0 24.2325C0 29.9279 4.62287 34.545 10.3255 34.545Z" fill="#417505"/>
</g>
</svg>
