<svg width="20" height="20" viewBox="0 0 20 20" fill="none" xmlns="http://www.w3.org/2000/svg">
<path d="M18.1068 5.51378C17.5124 5.77345 16.8825 5.94282 16.238 6.01628C16.9162 5.61416 17.4241 4.97821 17.6664 4.22795C17.0303 4.60641 16.3335 4.87159 15.6068 5.0117C15.1608 4.53824 14.5831 4.20946 13.9483 4.0679C13.3135 3.92634 12.6508 3.97851 12.0459 4.21766C11.4411 4.4568 10.9219 4.87193 10.5556 5.40933C10.1892 5.94674 9.99251 6.58171 9.99094 7.23212C9.99224 7.48199 10.0192 7.73107 10.0714 7.97545C8.78036 7.90982 7.51757 7.5736 6.36486 6.9886C5.21215 6.40359 4.19525 5.58286 3.3801 4.57962C2.96314 5.2947 2.83475 6.14194 3.02112 6.94845C3.2075 7.75497 3.69459 8.45997 4.38302 8.91961C3.86854 8.89975 3.36602 8.75871 2.91635 8.50795V8.54961C2.91543 9.29936 3.17413 10.0263 3.64848 10.6069C4.12283 11.1875 4.78357 11.586 5.51844 11.7346C5.23945 11.807 4.95249 11.8441 4.66427 11.845C4.45912 11.8438 4.25437 11.8269 4.05177 11.7946C4.26002 12.439 4.66434 13.0022 5.20824 13.4056C5.75214 13.809 6.40847 14.0324 7.08552 14.0446C5.93665 14.9463 4.51762 15.4347 3.05719 15.4313C2.79535 15.4328 2.53364 15.4189 2.27344 15.3896C3.75916 16.3458 5.48955 16.8522 7.25635 16.8479C13.2243 16.8479 16.4893 11.9054 16.4893 7.61545C16.4893 7.47462 16.4893 7.3342 16.4793 7.19337C17.1125 6.72917 17.6627 6.16131 18.1068 5.51378Z" fill="white"/>
</svg>
